<?xml version="1.0" encoding="utf-8"?>
<!-- Generator: Adobe Illustrator 16.0.0, SVG Export Plug-In . SVG Version: 6.00 Build 0)  -->
<!DOCTYPE svg PUBLIC "-//W3C//DTD SVG 1.1//EN" "http://www.w3.org/Graphics/SVG/1.1/DTD/svg11.dtd">
<svg version="1.1" id="Capa_1" xmlns="http://www.w3.org/2000/svg" xmlns:xlink="http://www.w3.org/1999/xlink" x="0px" y="0px"
	 width="438.549px" height="438.549px" viewBox="0 0 438.549 438.549" enable-background="new 0 0 438.549 438.549"
	 xml:space="preserve">
<g>
	<path fill="#67C8CA" d="M407.448,114.573c-19.396-33.596-45.708-60.194-78.939-79.8c-33.236-19.607-69.52-29.408-108.878-29.408
		c-39.353,0-75.65,9.804-108.879,29.408c-33.235,19.605-59.545,46.204-78.941,79.8C12.416,148.168,2.719,184.854,2.719,224.63
		c0,47.78,13.79,90.745,41.377,128.906c27.583,38.164,63.217,64.572,106.9,79.227c5.083,0.954,8.848,0.283,11.295-1.996
		c2.449-2.281,3.671-5.14,3.671-8.562c0-0.571-0.048-5.708-0.142-15.417c-0.098-9.709-0.142-18.18-0.142-25.406l-6.497,1.137
		c-4.142,0.767-9.368,1.092-15.676,1c-6.305-0.09-12.851-0.758-19.628-2c-6.78-1.23-13.086-4.086-18.923-8.559
		c-5.835-4.473-9.978-10.328-12.425-17.557l-2.825-6.569c-1.882-4.374-4.846-9.233-8.896-14.56
		c-4.048-5.33-8.143-8.944-12.285-10.848l-1.979-1.431c-1.317-0.951-2.54-2.099-3.671-3.429c-1.129-1.332-1.975-2.664-2.54-3.998
		c-0.566-1.334-0.098-2.43,1.411-3.288c1.509-0.859,4.235-1.276,8.191-1.276l5.646,0.854c3.766,0.763,8.424,3.041,13.981,6.851
		c5.554,3.806,10.118,8.754,13.697,14.842c4.333,7.806,9.553,13.755,15.675,17.847c6.118,4.094,12.287,6.137,18.498,6.137
		c6.213,0,11.579-0.477,16.1-1.424c4.516-0.951,8.753-2.383,12.708-4.284c1.694-12.759,6.308-22.56,13.837-29.41
		c-10.731-1.14-20.38-2.856-28.949-5.14c-8.565-2.287-17.416-5.996-26.547-11.141c-9.135-5.137-16.714-11.516-22.737-19.126
		c-6.024-7.614-10.969-17.61-14.825-29.979c-3.86-12.373-5.79-26.647-5.79-42.825c0-23.035,7.44-42.637,22.314-58.817
		c-6.968-17.318-6.31-36.732,1.976-58.24c5.46-1.715,13.559-0.428,24.291,3.853c10.733,4.283,18.591,7.952,23.583,10.994
		c4.991,3.041,8.991,5.618,12.004,7.708c17.515-4.947,35.59-7.421,54.229-7.421s36.717,2.474,54.232,7.421l10.732-6.849
		c7.34-4.57,16.006-8.758,25.979-12.565c9.979-3.805,17.61-4.853,22.885-3.138c8.471,21.509,9.225,40.922,2.255,58.24
		c14.874,16.18,22.316,35.787,22.316,58.817c0,16.178-1.938,30.497-5.79,42.966c-3.858,12.472-8.845,22.457-14.962,29.979
		c-6.125,7.521-13.752,13.85-22.882,18.985c-9.134,5.14-17.987,8.851-26.553,11.136c-8.568,2.287-18.216,4.004-28.947,5.146
		c9.787,8.563,14.683,22.077,14.683,40.539v60.237c0,3.422,1.177,6.278,3.533,8.562c2.354,2.279,6.069,2.95,11.155,1.995
		c43.688-14.653,79.321-41.062,106.904-79.226c27.58-38.162,41.375-81.127,41.375-128.906
		C436.536,184.851,426.833,148.168,407.448,114.573z"/>
</g>
</svg>
